<svg xmlns="http://www.w3.org/2000/svg" viewBox="0 0 320 80" role="img" aria-label="Dogar Foods &amp; Sajji">
  <!-- Icon (compact, scaled to fit 70 high) -->
  <g transform="translate(4 4) scale(0.32)">
    <g fill="#d92027">
      <rect x="62" y="14" width="5" height="36" rx="1.5"/>
      <rect x="71" y="14" width="5" height="36" rx="1.5"/>
      <rect x="80" y="14" width="5" height="36" rx="1.5"/>
      <rect x="89" y="14" width="5" height="36" rx="1.5"/>
      <rect x="60" y="46" width="36" height="10" rx="3"/>
      <path d="M71 56 H85 L83 132 Q78 138 73 132 Z"/>
    </g>
    <g fill="#d92027">
      <path d="M100 10 L107 64 L93 64 Z"/>
      <path d="M95 62 H105 L103 132 Q100 138 97 132 Z"/>
    </g>
    <g fill="#d92027">
      <ellipse cx="130" cy="34" rx="14" ry="24"/>
      <rect x="126" y="54" width="8" height="14" rx="2"/>
      <path d="M126 66 H134 L132 132 Q130 138 128 132 Z"/>
    </g>
    <g fill="none" stroke="#d92027" stroke-linecap="round">
      <path d="M52 138 Q100 120 148 138" stroke-width="6"/>
      <path d="M44 144 Q100 178 156 144" stroke-width="7"/>
    </g>
  </g>

  <!-- Wordmark next to icon -->
  <g font-family="'Arial Black','Helvetica Neue',Impact,sans-serif">
    <text x="78" y="42" font-weight="900" font-size="30" fill="#d92027" letter-spacing="1">DOGAR</text>
    <text x="78" y="62" font-weight="800" font-size="11" fill="currentColor" letter-spacing="2.5">FOODS &amp; SAJJI</text>
  </g>
</svg>
